<?xml version="1.0" standalone="no"?>
<svg viewBox="0 0 200 200" xmlns="http://www.w3.org/2000/svg">
  <path fill="#EF233C" d="M22.5,-31.5C30.7,-34.2,40.1,-31.4,37.3,-25.2C34.5,-19.1,19.5,-9.5,22,1.4C24.5,12.4,44.6,24.9,45,26.9C45.4,29,26.3,20.7,15.6,14.8C4.8,8.9,2.4,5.4,-3.8,12.1C-10.1,18.7,-20.2,35.6,-26.9,39.1C-33.7,42.7,-37.1,33.1,-39.8,24.4C-42.5,15.6,-44.3,7.8,-45.2,-0.5C-46,-8.8,-45.8,-17.5,-38.6,-18.4C-31.3,-19.2,-17.1,-12.1,-9.5,-9.8C-1.9,-7.5,-1,-10.1,3.1,-15.4C7.1,-20.8,14.2,-28.9,22.5,-31.5Z" transform="translate(100 100)" />
</svg>
