<?xml version="1.0" standalone="no"?>
<svg viewBox="0 0 200 200" xmlns="http://www.w3.org/2000/svg">
  <path fill="#0096C7" d="M23.7,-34.7C35.1,-34.5,51.9,-37,60.2,-31.7C68.5,-26.4,68.5,-13.2,68.1,-0.2C67.7,12.7,66.9,25.4,62,36.7C57.1,48,48.1,57.8,37.1,66.3C26,74.8,13,81.9,2.7,77.2C-7.6,72.5,-15.3,56.1,-28.2,48.7C-41.1,41.4,-59.3,43.1,-68.2,36.5C-77,29.8,-76.5,14.9,-67.9,5C-59.3,-5,-42.7,-10,-33.3,-15.8C-24,-21.5,-22,-28,-17.6,-32.3C-13.3,-36.6,-6.6,-38.7,-0.2,-38.3C6.1,-37.8,12.3,-34.9,23.7,-34.7Z" transform="translate(100 100)" />
</svg>
