<?xml version="1.0" standalone="no"?>
<svg viewBox="0 0 200 200" xmlns="http://www.w3.org/2000/svg">
  <path fill="#52B788" d="M12.5,-21.2C13.1,-21.3,8.3,-11.7,16.9,-6.5C25.6,-1.3,47.7,-0.7,56.9,5.3C66.1,11.3,62.5,22.6,55,29.9C47.6,37.3,36.5,40.6,26.7,47.2C16.9,53.8,8.4,63.7,-3.7,70.2C-15.9,76.6,-31.8,79.7,-39.5,71.8C-47.1,64,-46.5,45.2,-38.9,31.4C-31.2,17.7,-16.6,8.8,-13.9,1.6C-11.2,-5.7,-20.4,-11.4,-22.7,-16C-25,-20.6,-20.5,-24.1,-15.6,-21.5C-10.6,-18.9,-5.3,-10.2,0.3,-10.7C6,-11.3,11.9,-21.2,12.5,-21.2Z" transform="translate(100 100)" />
</svg>
