<?xml version="1.0" standalone="no"?>
<svg viewBox="0 0 200 200" xmlns="http://www.w3.org/2000/svg">
  <path fill="#D90429" d="M21,-37.2C30.3,-31,42.9,-31.5,51.2,-26.4C59.5,-21.4,63.5,-10.7,67.8,2.5C72.2,15.7,76.9,31.4,68.7,36.7C60.5,41.9,39.4,36.8,25.8,35.4C12.2,34.1,6.1,36.5,-4.7,44.7C-15.5,52.9,-31.1,66.8,-45.3,68.6C-59.6,70.3,-72.6,59.9,-73.9,46.4C-75.2,32.9,-64.7,16.5,-59,3.3C-53.3,-9.9,-52.3,-19.7,-48.3,-28.5C-44.3,-37.3,-37.4,-45,-28.9,-51.6C-20.3,-58.2,-10.2,-63.6,-2.1,-59.9C5.9,-56.2,11.8,-43.4,21,-37.2Z" transform="translate(100 100)" />
</svg>
