<?xml version="1.0" standalone="no"?><svg xmlns="http://www.w3.org/2000/svg" viewBox="0 0 1440 320"><path fill="#0096C7" fill-opacity="1" d="M0,96L68.6,192L137.1,128L205.7,64L274.3,128L342.9,96L411.4,32L480,160L548.6,64L617.1,32L685.7,32L754.3,128L822.9,96L891.4,224L960,224L1028.6,288L1097.1,96L1165.7,96L1234.3,224L1302.9,224L1371.4,224L1440,128L1440,320L1371.4,320L1302.9,320L1234.3,320L1165.7,320L1097.1,320L1028.6,320L960,320L891.4,320L822.9,320L754.3,320L685.7,320L617.1,320L548.6,320L480,320L411.4,320L342.9,320L274.3,320L205.7,320L137.1,320L68.6,320L0,320Z"></path></svg>