<?xml version="1.0" standalone="no"?><svg xmlns="http://www.w3.org/2000/svg" viewBox="0 0 1440 320"><path fill="#D90429" fill-opacity="1" d="M0,64L14.1,90.7C28.2,117,56,171,85,202.7C112.9,235,141,245,169,218.7C197.6,192,226,128,254,106.7C282.4,85,311,107,339,122.7C367.1,139,395,149,424,176C451.8,203,480,245,508,224C536.5,203,565,117,593,101.3C621.2,85,649,139,678,154.7C705.9,171,734,149,762,122.7C790.6,96,819,64,847,48C875.3,32,904,32,932,48C960,64,988,96,1016,122.7C1044.7,149,1073,171,1101,181.3C1129.4,192,1158,192,1186,165.3C1214.1,139,1242,85,1271,96C1298.8,107,1327,181,1355,208C1383.5,235,1412,213,1426,202.7L1440,192L1440,320L1425.9,320C1411.8,320,1384,320,1355,320C1327.1,320,1299,320,1271,320C1242.4,320,1214,320,1186,320C1157.6,320,1129,320,1101,320C1072.9,320,1045,320,1016,320C988.2,320,960,320,932,320C903.5,320,875,320,847,320C818.8,320,791,320,762,320C734.1,320,706,320,678,320C649.4,320,621,320,593,320C564.7,320,536,320,508,320C480,320,452,320,424,320C395.3,320,367,320,339,320C310.6,320,282,320,254,320C225.9,320,198,320,169,320C141.2,320,113,320,85,320C56.5,320,28,320,14,320L0,320Z"></path></svg>