<?xml version="1.0" standalone="no"?><svg xmlns="http://www.w3.org/2000/svg" viewBox="0 0 1440 320"><path fill="#7B2CBF" fill-opacity="1" d="M0,0L0,128L45,128L45,128L90,128L90,64L135,64L135,32L180,32L180,288L225,288L225,32L270,32L270,128L315,128L315,224L360,224L360,256L405,256L405,128L450,128L450,96L495,96L495,320L540,320L540,160L585,160L585,32L630,32L630,288L675,288L675,160L720,160L720,64L765,64L765,64L810,64L810,128L855,128L855,32L900,32L900,256L945,256L945,32L990,32L990,32L1035,32L1035,224L1080,224L1080,192L1125,192L1125,256L1170,256L1170,192L1215,192L1215,32L1260,32L1260,128L1305,128L1305,192L1350,192L1350,96L1395,96L1395,160L1440,160L1440,320L1395,320L1395,320L1350,320L1350,320L1305,320L1305,320L1260,320L1260,320L1215,320L1215,320L1170,320L1170,320L1125,320L1125,320L1080,320L1080,320L1035,320L1035,320L990,320L990,320L945,320L945,320L900,320L900,320L855,320L855,320L810,320L810,320L765,320L765,320L720,320L720,320L675,320L675,320L630,320L630,320L585,320L585,320L540,320L540,320L495,320L495,320L450,320L450,320L405,320L405,320L360,320L360,320L315,320L315,320L270,320L270,320L225,320L225,320L180,320L180,320L135,320L135,320L90,320L90,320L45,320L45,320L0,320L0,320Z"></path></svg>