<?xml version="1.0" standalone="no"?><svg xmlns="http://www.w3.org/2000/svg" viewBox="0 0 1440 320"><path fill="#D90429" fill-opacity="1" d="M0,64L14.1,90.7C28.2,117,56,171,85,202.7C112.9,235,141,245,169,218.7C197.6,192,226,128,254,106.7C282.4,85,311,107,339,122.7C367.1,139,395,149,424,176C451.8,203,480,245,508,224C536.5,203,565,117,593,101.3C621.2,85,649,139,678,154.7C705.9,171,734,149,762,122.7C790.6,96,819,64,847,48C875.3,32,904,32,932,48C960,64,988,96,1016,122.7C1044.7,149,1073,171,1101,181.3C1129.4,192,1158,192,1186,165.3C1214.1,139,1242,85,1271,96C1298.8,107,1327,181,1355,208C1383.5,235,1412,213,1426,202.7L1440,192L1440,0L1425.9,0C1411.8,0,1384,0,1355,0C1327.1,0,1299,0,1271,0C1242.4,0,1214,0,1186,0C1157.6,0,1129,0,1101,0C1072.9,0,1045,0,1016,0C988.2,0,960,0,932,0C903.5,0,875,0,847,0C818.8,0,791,0,762,0C734.1,0,706,0,678,0C649.4,0,621,0,593,0C564.7,0,536,0,508,0C480,0,452,0,424,0C395.3,0,367,0,339,0C310.6,0,282,0,254,0C225.9,0,198,0,169,0C141.2,0,113,0,85,0C56.5,0,28,0,14,0L0,0Z"></path></svg>