<?xml version="1.0" standalone="no"?><svg xmlns="http://www.w3.org/2000/svg" viewBox="0 0 1440 320"><path fill="#52B788" fill-opacity="1" d="M0,160L42.4,128L84.7,64L127.1,128L169.4,192L211.8,192L254.1,96L296.5,0L338.8,224L381.2,96L423.5,0L465.9,224L508.2,192L550.6,96L592.9,224L635.3,192L677.6,320L720,32L762.4,64L804.7,256L847.1,256L889.4,128L931.8,32L974.1,288L1016.5,288L1058.8,256L1101.2,160L1143.5,64L1185.9,96L1228.2,224L1270.6,96L1312.9,96L1355.3,160L1397.6,32L1440,320L1440,0L1397.6,0L1355.3,0L1312.9,0L1270.6,0L1228.2,0L1185.9,0L1143.5,0L1101.2,0L1058.8,0L1016.5,0L974.1,0L931.8,0L889.4,0L847.1,0L804.7,0L762.4,0L720,0L677.6,0L635.3,0L592.9,0L550.6,0L508.2,0L465.9,0L423.5,0L381.2,0L338.8,0L296.5,0L254.1,0L211.8,0L169.4,0L127.1,0L84.7,0L42.4,0L0,0Z"></path></svg>