<?xml version="1.0" standalone="no"?><svg xmlns="http://www.w3.org/2000/svg" viewBox="0 0 1440 320"><path fill="#52B788" fill-opacity="1" d="M0,160L42.4,128L84.7,64L127.1,128L169.4,192L211.8,192L254.1,96L296.5,0L338.8,224L381.2,96L423.5,0L465.9,224L508.2,192L550.6,96L592.9,224L635.3,192L677.6,320L720,32L762.4,64L804.7,256L847.1,256L889.4,128L931.8,32L974.1,288L1016.5,288L1058.8,256L1101.2,160L1143.5,64L1185.9,96L1228.2,224L1270.6,96L1312.9,96L1355.3,160L1397.6,32L1440,320L1440,320L1397.6,320L1355.3,320L1312.9,320L1270.6,320L1228.2,320L1185.9,320L1143.5,320L1101.2,320L1058.8,320L1016.5,320L974.1,320L931.8,320L889.4,320L847.1,320L804.7,320L762.4,320L720,320L677.6,320L635.3,320L592.9,320L550.6,320L508.2,320L465.9,320L423.5,320L381.2,320L338.8,320L296.5,320L254.1,320L211.8,320L169.4,320L127.1,320L84.7,320L42.4,320L0,320Z"></path></svg>