<?xml version="1.0" standalone="no"?><svg xmlns="http://www.w3.org/2000/svg" viewBox="0 0 1440 320"><path fill="#FFB700" fill-opacity="1" d="M0,256L55.4,64L110.8,192L166.2,0L221.5,256L276.9,256L332.3,288L387.7,224L443.1,192L498.5,256L553.8,256L609.2,64L664.6,192L720,128L775.4,32L830.8,32L886.2,160L941.5,224L996.9,64L1052.3,128L1107.7,0L1163.1,64L1218.5,32L1273.8,32L1329.2,160L1384.6,192L1440,160L1440,0L1384.6,0L1329.2,0L1273.8,0L1218.5,0L1163.1,0L1107.7,0L1052.3,0L996.9,0L941.5,0L886.2,0L830.8,0L775.4,0L720,0L664.6,0L609.2,0L553.8,0L498.5,0L443.1,0L387.7,0L332.3,0L276.9,0L221.5,0L166.2,0L110.8,0L55.4,0L0,0Z"></path></svg>