<?xml version="1.0" standalone="no"?><svg xmlns="http://www.w3.org/2000/svg" viewBox="0 0 1440 320"><path fill="#0096C7" fill-opacity="1" d="M0,96L68.6,192L137.1,128L205.7,64L274.3,128L342.9,96L411.4,32L480,160L548.6,64L617.1,32L685.7,32L754.3,128L822.9,96L891.4,224L960,224L1028.6,288L1097.1,96L1165.7,96L1234.3,224L1302.9,224L1371.4,224L1440,128L1440,0L1371.4,0L1302.9,0L1234.3,0L1165.7,0L1097.1,0L1028.6,0L960,0L891.4,0L822.9,0L754.3,0L685.7,0L617.1,0L548.6,0L480,0L411.4,0L342.9,0L274.3,0L205.7,0L137.1,0L68.6,0L0,0Z"></path></svg>