<?xml version="1.0" standalone="no"?><svg xmlns="http://www.w3.org/2000/svg" viewBox="0 0 1440 320"><path fill="#7B2CBF" fill-opacity="1" d="M0,0L0,128L45,128L45,128L90,128L90,64L135,64L135,32L180,32L180,288L225,288L225,32L270,32L270,128L315,128L315,224L360,224L360,256L405,256L405,128L450,128L450,96L495,96L495,320L540,320L540,160L585,160L585,32L630,32L630,288L675,288L675,160L720,160L720,64L765,64L765,64L810,64L810,128L855,128L855,32L900,32L900,256L945,256L945,32L990,32L990,32L1035,32L1035,224L1080,224L1080,192L1125,192L1125,256L1170,256L1170,192L1215,192L1215,32L1260,32L1260,128L1305,128L1305,192L1350,192L1350,96L1395,96L1395,160L1440,160L1440,0L1395,0L1395,0L1350,0L1350,0L1305,0L1305,0L1260,0L1260,0L1215,0L1215,0L1170,0L1170,0L1125,0L1125,0L1080,0L1080,0L1035,0L1035,0L990,0L990,0L945,0L945,0L900,0L900,0L855,0L855,0L810,0L810,0L765,0L765,0L720,0L720,0L675,0L675,0L630,0L630,0L585,0L585,0L540,0L540,0L495,0L495,0L450,0L450,0L405,0L405,0L360,0L360,0L315,0L315,0L270,0L270,0L225,0L225,0L180,0L180,0L135,0L135,0L90,0L90,0L45,0L45,0L0,0L0,0Z"></path></svg>